<svg width="14" height="14" viewBox="0 0 14 14" fill="none" xmlns="http://www.w3.org/2000/svg">
<g clip-path="url(#clip0_7_144)">
<path d="M7.00073 7.38157C6.89458 7.38128 6.79074 7.41252 6.70234 7.47133C6.61394 7.53015 6.54497 7.61389 6.50414 7.71197C6.46332 7.81004 6.45249 7.91803 6.47302 8.02227C6.49355 8.12651 6.54451 8.22231 6.61946 8.29754C6.69442 8.37277 6.78998 8.42405 6.89407 8.44489C6.99815 8.46572 7.10607 8.45518 7.20416 8.41459C7.30226 8.37399 7.38611 8.30518 7.44511 8.21686C7.50411 8.12855 7.53561 8.02469 7.53561 7.91844C7.53807 7.8474 7.52593 7.77661 7.49995 7.71046C7.47396 7.6443 7.43467 7.5842 7.38452 7.53386C7.33438 7.48353 7.27444 7.44404 7.20842 7.41785C7.1424 7.39165 7.07171 7.3793 7.00073 7.38157Z" fill="#8B97B5"/>
<path d="M9.49786 7.38157C9.39171 7.38128 9.28787 7.41252 9.19947 7.47133C9.11107 7.53015 9.0421 7.61389 9.00128 7.71197C8.96045 7.81004 8.94962 7.91803 8.97015 8.02227C8.99068 8.12651 9.04164 8.22231 9.1166 8.29754C9.19155 8.37277 9.28711 8.42405 9.3912 8.44489C9.49528 8.46572 9.6032 8.45518 9.70129 8.41459C9.79939 8.37399 9.88324 8.30518 9.94224 8.21686C10.0012 8.12855 10.0327 8.02469 10.0327 7.91844C10.0352 7.8474 10.0231 7.77661 9.99708 7.71046C9.97109 7.6443 9.9318 7.5842 9.88166 7.53386C9.83151 7.48353 9.77157 7.44404 9.70555 7.41785C9.63953 7.39165 9.56884 7.3793 9.49786 7.38157Z" fill="#8B97B5"/>
<path d="M4.50364 7.38158C4.39756 7.38158 4.29386 7.41307 4.20566 7.47206C4.11746 7.53105 4.04871 7.6149 4.00811 7.713C3.96752 7.8111 3.9569 7.91904 3.97759 8.02318C3.99829 8.12733 4.04937 8.22299 4.12438 8.29807C4.19939 8.37315 4.29496 8.42428 4.39901 8.445C4.50305 8.46572 4.61089 8.45508 4.7089 8.41445C4.80691 8.37381 4.89067 8.305 4.94961 8.21672C5.00855 8.12843 5.04 8.02463 5.04 7.91845C5.04248 7.84728 5.0303 7.77636 5.00422 7.7101C4.97814 7.64384 4.93872 7.58367 4.88841 7.53331C4.83811 7.48296 4.77799 7.4435 4.71179 7.4174C4.6456 7.39129 4.57475 7.3791 4.50364 7.38158Z" fill="#8B97B5"/>
<path d="M7.00073 9.84999C6.89452 9.84969 6.79062 9.88097 6.70219 9.93985C6.61376 9.99873 6.54478 10.0826 6.504 10.1807C6.46322 10.2789 6.45248 10.3869 6.47312 10.4912C6.49377 10.5955 6.54489 10.6913 6.61999 10.7665C6.69509 10.8416 6.79079 10.8928 6.89497 10.9135C6.99915 10.9341 7.10712 10.9234 7.20519 10.8826C7.30325 10.8418 7.38701 10.7727 7.44583 10.6842C7.50465 10.5957 7.5359 10.4917 7.53561 10.3854C7.53786 10.3145 7.52557 10.2438 7.49949 10.1778C7.47341 10.1119 7.43409 10.0519 7.38397 10.0018C7.33384 9.9516 7.27397 9.91224 7.20806 9.88614C7.14214 9.86003 7.07158 9.84773 7.00073 9.84999Z" fill="#8B97B5"/>
<path d="M9.49786 9.84999C9.39165 9.84969 9.28775 9.88097 9.19932 9.93985C9.11089 9.99873 9.04191 10.0826 9.00113 10.1807C8.96035 10.2789 8.94961 10.3869 8.97026 10.4912C8.9909 10.5955 9.04202 10.6913 9.11712 10.7665C9.19222 10.8416 9.28792 10.8928 9.3921 10.9135C9.49629 10.9341 9.60425 10.9234 9.70232 10.8826C9.80038 10.8418 9.88414 10.7727 9.94296 10.6842C10.0018 10.5957 10.033 10.4917 10.0327 10.3854C10.035 10.3145 10.0227 10.2438 9.99662 10.1778C9.97054 10.1119 9.93122 10.0519 9.8811 10.0018C9.83097 9.9516 9.7711 9.91224 9.70519 9.88614C9.63927 9.86003 9.56871 9.84773 9.49786 9.84999Z" fill="#8B97B5"/>
<path d="M4.50364 9.84999C4.3975 9.84999 4.29374 9.88151 4.2055 9.94057C4.11727 9.99963 4.04852 10.0836 4.00797 10.1818C3.96742 10.2799 3.95688 10.388 3.9777 10.4921C3.99852 10.5963 4.04975 10.692 4.1249 10.767C4.20006 10.842 4.29577 10.893 4.39991 10.9136C4.50405 10.9341 4.61194 10.9233 4.70992 10.8824C4.8079 10.8416 4.89157 10.7725 4.95033 10.6841C5.00909 10.5956 5.04029 10.4916 5.04 10.3854C5.04249 10.3143 5.03031 10.2434 5.00421 10.1772C4.97812 10.1111 4.93867 10.051 4.88834 10.0007C4.83801 9.95049 4.77787 9.91117 4.71168 9.88524C4.64549 9.8593 4.57467 9.8473 4.50364 9.84999Z" fill="#8B97B5"/>
<path d="M10.6947 0.91105H9.80813V0.53539C9.79926 0.395298 9.73927 0.263353 9.63956 0.164642C9.53985 0.0659304 9.40738 0.0073362 9.26734 0C9.12534 -5.39314e-07 8.98914 0.0563592 8.88859 0.156722C8.78805 0.257085 8.73137 0.39326 8.73098 0.53539V0.91105H5.2705V0.53539C5.2616 0.395057 5.2014 0.262915 5.10139 0.164169C5.00137 0.065423 4.86854 0.00698437 4.72823 0C4.58649 0.000390303 4.45067 0.0569226 4.35044 0.157243C4.25022 0.257564 4.19374 0.393516 4.19335 0.53539V0.91105H3.30681C2.43015 0.912224 1.58973 1.26133 0.969837 1.88181C0.349944 2.50229 0.00117279 3.34351 0 4.221L0 10.6915C0.00117357 11.5689 0.349992 12.4099 0.969927 13.0302C1.58986 13.6504 2.43028 13.9992 3.30681 14H10.6947C11.5709 13.9988 12.411 13.6499 13.0306 13.0297C13.6502 12.4095 13.9988 11.5686 14 10.6915V4.221C13.9992 3.34364 13.6508 2.50242 13.0311 1.8819C12.4115 1.26138 11.5712 0.912225 10.6947 0.91105ZM10.6947 12.9277H3.30681C2.71427 12.9274 2.1461 12.6917 1.72698 12.2724C1.30785 11.8532 1.07202 11.2846 1.07124 10.6915V5.67632H12.9288V10.6915C12.928 11.2844 12.6924 11.8527 12.2735 12.2719C11.8547 12.6911 11.2869 12.927 10.6947 12.9277ZM3.30681 1.98331H4.19335V2.38411C4.20173 2.52351 4.26073 2.65503 4.35924 2.75391C4.45776 2.85279 4.58899 2.91221 4.72823 2.92098C4.87036 2.92059 5.00656 2.8639 5.10706 2.7633C5.20757 2.66271 5.2642 2.52638 5.26459 2.38411V1.98331H8.73098V2.38411C8.7397 2.52364 8.79901 2.65517 8.89777 2.75403C8.99653 2.85288 9.12794 2.91225 9.26734 2.92098C9.40933 2.92059 9.54538 2.86385 9.64564 2.76321C9.74591 2.66257 9.80222 2.52624 9.80222 2.38411V1.98331H10.6888C11.2822 1.98292 11.8515 2.2184 12.2715 2.63801C12.6916 3.05762 12.928 3.627 12.9288 4.221V4.60406H1.07124V4.221C1.07202 3.62777 1.30781 3.05906 1.72689 2.63958C2.14597 2.2201 2.71414 1.98409 3.30681 1.98331Z" fill="#8B97B5"/>
</g>
<defs>
<clipPath id="clip0_7_144">
<rect width="14" height="14" fill="white"/>
</clipPath>
</defs>
</svg>
