<svg width="16" height="14" viewBox="0 0 16 14" fill="none" xmlns="http://www.w3.org/2000/svg">
<g clip-path="url(#clip0_7_163)">
<path d="M15.4286 11.657H6.85713C6.70558 11.657 6.56024 11.7184 6.45307 11.8277C6.34591 11.937 6.28571 12.0852 6.28571 12.2398C6.28571 12.3944 6.34591 12.5426 6.45307 12.6519C6.56024 12.7612 6.70558 12.8226 6.85713 12.8226H15.4286C15.5801 12.8226 15.7255 12.7612 15.8326 12.6519C15.9398 12.5426 16 12.3944 16 12.2398C16 12.0852 15.9398 11.937 15.8326 11.8277C15.7255 11.7184 15.5801 11.657 15.4286 11.657Z" fill="#8B97B5"/>
<path d="M15.4286 6.41132H6.85713C6.70558 6.41132 6.56024 6.47273 6.45307 6.58204C6.34591 6.69134 6.28571 6.83959 6.28571 6.99417C6.28571 7.14875 6.34591 7.297 6.45307 7.40631C6.56024 7.51561 6.70558 7.57702 6.85713 7.57702H15.4286C15.5801 7.57702 15.7255 7.51561 15.8326 7.40631C15.9398 7.297 16 7.14875 16 6.99417C16 6.83959 15.9398 6.69134 15.8326 6.58204C15.7255 6.47273 15.5801 6.41132 15.4286 6.41132Z" fill="#8B97B5"/>
<path d="M6.85713 2.33139H15.4286C15.5801 2.33139 15.7255 2.26998 15.8326 2.16068C15.9398 2.05137 16 1.90312 16 1.74854C16 1.59396 15.9398 1.44571 15.8326 1.33641C15.7255 1.2271 15.5801 1.1657 15.4286 1.1657H6.85713C6.70558 1.1657 6.56024 1.2271 6.45307 1.33641C6.34591 1.44571 6.28571 1.59396 6.28571 1.74854C6.28571 1.90312 6.34591 2.05137 6.45307 2.16068C6.56024 2.26998 6.70558 2.33139 6.85713 2.33139Z" fill="#8B97B5"/>
<path d="M3.58288 0.198168L1.81716 2.10991L0.954304 1.32306C0.84064 1.22027 0.691595 1.16774 0.539959 1.17703C0.388322 1.18632 0.246515 1.25667 0.145732 1.37261C0.0449501 1.48854 -0.00655147 1.64056 0.00255744 1.79523C0.0116664 1.9499 0.0806396 2.09454 0.194304 2.19734L1.4743 3.36303C1.53002 3.41508 1.59531 3.45534 1.66638 3.48148C1.73745 3.50762 1.8129 3.51913 1.88836 3.51533C1.96383 3.51154 2.0378 3.49252 2.10601 3.45937C2.17422 3.42623 2.2353 3.37961 2.28573 3.32223L4.42859 0.990841C4.53502 0.881637 4.59476 0.733913 4.59476 0.579933C4.59476 0.425953 4.53502 0.278229 4.42859 0.169026C4.3749 0.112992 4.31069 0.0685745 4.23979 0.0384276C4.16889 0.00828057 4.09276 -0.00697686 4.01595 -0.00643278C3.93913 -0.00588871 3.86322 0.0104457 3.79274 0.0415941C3.72225 0.0727425 3.65865 0.118066 3.60573 0.174854L3.58288 0.198168Z" fill="#8B97B5"/>
<path d="M3.58287 5.4438L1.81716 7.35554L0.954303 6.56869C0.898022 6.51779 0.832463 6.4787 0.76137 6.45364C0.690276 6.42859 0.615041 6.41806 0.539958 6.42266C0.464875 6.42726 0.391416 6.4469 0.323774 6.48045C0.256133 6.51401 0.195634 6.56083 0.145731 6.61824C0.0958291 6.67564 0.0575008 6.74251 0.0329348 6.81502C0.00836882 6.88754 -0.00195372 6.96428 0.00255655 7.04086C0.00706683 7.11744 0.0263216 7.19237 0.0592215 7.26136C0.0921214 7.33036 0.138022 7.39207 0.194303 7.44297L1.4743 8.60866C1.53002 8.66071 1.59531 8.70097 1.66638 8.72711C1.73745 8.75325 1.8129 8.76476 1.88836 8.76096C1.96383 8.75717 2.0378 8.73815 2.10601 8.705C2.17422 8.67186 2.2353 8.62524 2.28573 8.56786L4.42859 6.23647C4.53468 6.12517 4.59307 5.97545 4.59093 5.82023C4.58878 5.66502 4.52628 5.51703 4.41716 5.40883C4.30804 5.30062 4.16125 5.24106 4.00908 5.24325C3.85691 5.24543 3.71182 5.30919 3.60573 5.42048L3.58287 5.4438Z" fill="#8B97B5"/>
<path d="M3.58288 10.6894L1.81716 12.6012L0.954304 11.8143C0.84064 11.7115 0.691595 11.659 0.539959 11.6683C0.388322 11.6776 0.246515 11.7479 0.145732 11.8639C0.0449501 11.9798 -0.00655147 12.1318 0.00255744 12.2865C0.0116664 12.4412 0.0806396 12.5858 0.194304 12.6886L1.4743 13.8543C1.53002 13.9063 1.59531 13.9466 1.66638 13.9727C1.73745 13.9989 1.8129 14.0104 1.88836 14.0066C1.96383 14.0028 2.0378 13.9838 2.10601 13.9506C2.17422 13.9175 2.2353 13.8709 2.28573 13.8135L4.42859 11.4821C4.51977 11.3674 4.56487 11.2217 4.55478 11.0744C4.54469 10.9271 4.48016 10.7892 4.37423 10.6885C4.2683 10.5879 4.12886 10.532 3.98409 10.5322C3.83932 10.5323 3.70001 10.5885 3.5943 10.6894H3.58288Z" fill="#8B97B5"/>
</g>
<defs>
<clipPath id="clip0_7_163">
<rect width="16" height="14" fill="white"/>
</clipPath>
</defs>
</svg>
