<svg width="15" height="13" viewBox="0 0 15 13" fill="none" xmlns="http://www.w3.org/2000/svg">
<g clip-path="url(#clip0_7_39)">
<path d="M13.1 3.69001H5.69L4.2 0.710006C4.09364 0.496154 3.92957 0.316325 3.72635 0.190854C3.52312 0.065383 3.28884 -0.000724845 3.05 5.99468e-06H1.29C0.947871 5.99468e-06 0.619754 0.135916 0.377832 0.377838C0.13591 0.61976 0 0.947877 0 1.29001L0 11.62C0 11.7894 0.0333668 11.9572 0.0981954 12.1137C0.163024 12.2702 0.258045 12.4124 0.377832 12.5322C0.49762 12.652 0.639828 12.747 0.796338 12.8118C0.952848 12.8766 1.12059 12.91 1.29 12.91H13.1C13.2694 12.91 13.4372 12.8766 13.5937 12.8118C13.7502 12.747 13.8924 12.652 14.0122 12.5322C14.132 12.4124 14.227 12.2702 14.2918 12.1137C14.3566 11.9572 14.39 11.7894 14.39 11.62V5.00001C14.3927 4.82893 14.3612 4.65903 14.2976 4.5002C14.234 4.34137 14.1394 4.1968 14.0193 4.07488C13.8993 3.95297 13.7562 3.85615 13.5983 3.79008C13.4405 3.724 13.2711 3.68999 13.1 3.69001ZM13.28 11.62C13.2801 11.6687 13.2614 11.7156 13.2279 11.7509C13.1944 11.7863 13.1486 11.8074 13.1 11.81H1.29C1.24136 11.8074 1.19557 11.7863 1.16207 11.7509C1.12857 11.7156 1.10993 11.6687 1.11 11.62V1.29001C1.11 1.24227 1.12896 1.19648 1.16272 1.16273C1.19648 1.12897 1.24226 1.11001 1.29 1.11001H3.05C3.08436 1.11148 3.11783 1.12137 3.14747 1.13881C3.17711 1.15624 3.20202 1.18069 3.22 1.21001L4.86 4.49001C4.90374 4.58292 4.97307 4.66144 5.05986 4.71635C5.14665 4.77126 5.2473 4.80028 5.35 4.80001H13.1C13.1477 4.80001 13.1935 4.81897 13.2273 4.85273C13.261 4.88648 13.28 4.93227 13.28 4.98001V11.62Z" fill="#8B97B5"/>
<path d="M6.45997 2.58H13.84C13.9122 2.58 13.9837 2.56577 14.0504 2.53813C14.1172 2.51049 14.1778 2.46998 14.2289 2.4189C14.28 2.36783 14.3205 2.3072 14.3481 2.24047C14.3757 2.17374 14.39 2.10222 14.39 2.03C14.39 1.95777 14.3757 1.88625 14.3481 1.81952C14.3205 1.75279 14.28 1.69216 14.2289 1.64109C14.1778 1.59001 14.1172 1.5495 14.0504 1.52186C13.9837 1.49422 13.9122 1.48 13.84 1.48H6.45997C6.38775 1.48 6.31623 1.49422 6.2495 1.52186C6.18277 1.5495 6.12214 1.59001 6.07106 1.64109C6.01999 1.69216 5.97948 1.75279 5.95184 1.81952C5.9242 1.88625 5.90997 1.95777 5.90997 2.03C5.90997 2.10222 5.9242 2.17374 5.95184 2.24047C5.97948 2.3072 6.01999 2.36783 6.07106 2.4189C6.12214 2.46998 6.18277 2.51049 6.2495 2.53813C6.31623 2.56577 6.38775 2.58 6.45997 2.58Z" fill="#8B97B5"/>
</g>
<defs>
<clipPath id="clip0_7_39">
<rect width="14.39" height="12.91" fill="white"/>
</clipPath>
</defs>
</svg>
