<svg width="15" height="12" viewBox="0 0 15 12" fill="none" xmlns="http://www.w3.org/2000/svg">
<g clip-path="url(#clip0_7_142)">
<path d="M14.9246 10.2004C14.6444 9.44104 14.1416 8.78773 13.4845 8.32907C12.8273 7.87041 12.0475 7.62858 11.2508 7.63636H11.0794C10.6309 7.12058 10.08 6.70763 9.46315 6.4248C8.84624 6.14197 8.1774 5.99572 7.50084 5.99572C6.82428 5.99572 6.15543 6.14197 5.53853 6.4248C4.92163 6.70763 4.37073 7.12058 3.92227 7.63636H3.75084C2.9533 7.62887 2.17281 7.87139 1.51529 8.33103C0.857774 8.79067 0.355071 9.44516 0.0754101 10.2057C0.00593671 10.4047 -0.0147615 10.6179 0.0151142 10.8269C0.0449899 11.0359 0.124536 11.2342 0.246839 11.4048C0.376157 11.5897 0.547205 11.7403 0.745591 11.8439C0.943976 11.9474 1.16389 12.001 1.38684 12H13.6183C13.8414 12.0008 14.0615 11.9472 14.2602 11.8437C14.4588 11.7401 14.6302 11.5896 14.76 11.4048C14.8817 11.2329 14.9608 11.0337 14.9906 10.824C15.0205 10.6143 15.0002 10.4004 14.9314 10.2004H14.9246ZM1.11427 10.7729C1.09185 10.7451 1.07628 10.7122 1.06883 10.677C1.06137 10.6418 1.06226 10.6053 1.07141 10.5705C1.23812 10.1239 1.51331 9.7276 1.87126 9.41869C2.22922 9.10978 2.65825 8.89832 3.11827 8.80407C2.97112 9.08303 2.84947 9.37517 2.75484 9.6768C2.63264 10.078 2.65143 10.51 2.80798 10.8986H1.38341C1.33111 10.8996 1.27934 10.8877 1.2325 10.864C1.18565 10.8403 1.14509 10.8055 1.11427 10.7625V10.7729ZM8.8817 10.9091H4.33884C4.24912 10.9061 4.16132 10.8819 4.08244 10.8382C4.00357 10.7946 3.9358 10.7328 3.88455 10.6577C3.82116 10.5654 3.779 10.4597 3.76119 10.3485C3.74338 10.2373 3.75039 10.1235 3.7817 10.0154C4.01648 9.18937 4.50334 8.46081 5.17181 7.9352C5.84028 7.4096 6.65568 7.1142 7.49998 7.09178C8.34429 7.1142 9.15968 7.4096 9.82815 7.9352C10.4966 8.46081 10.9835 9.18937 11.2183 10.0154C11.2499 10.1233 11.2573 10.2371 11.2398 10.3483C11.2223 10.4596 11.1803 10.5653 11.1171 10.6577C11.0655 10.7328 10.9974 10.7946 10.9183 10.8383C10.8391 10.8819 10.7511 10.9061 10.6611 10.9091H8.8817ZM13.8857 10.7729C13.8552 10.8159 13.815 10.8508 13.7684 10.8745C13.7219 10.8982 13.6703 10.9101 13.6183 10.9091H12.1937C12.3452 10.5189 12.3603 10.0875 12.2366 9.68727C12.1406 9.38587 12.0184 9.0938 11.8714 8.81455C12.3325 8.90715 12.7631 9.11726 13.1229 9.42525C13.4826 9.73324 13.7598 10.1291 13.9286 10.5757C13.9355 10.6098 13.9353 10.645 13.9279 10.679C13.9205 10.713 13.9061 10.745 13.8857 10.7729ZM7.49998 5.45455C8.12071 5.45691 8.72301 5.2399 9.20413 4.84054C9.68524 4.44119 10.0154 3.88423 10.1382 3.2647C10.2609 2.64517 10.1688 2.00145 9.87746 1.44337C9.58612 0.885296 9.11361 0.447437 8.54056 0.204503C7.96752 -0.0384307 7.32944 -0.0713872 6.73519 0.111257C6.14094 0.293901 5.62734 0.680828 5.28202 1.20602C4.93671 1.73122 4.78106 2.36214 4.84166 2.99114C4.90225 3.62014 5.17531 4.20825 5.61427 4.65513C6.11398 5.16547 6.79221 5.453 7.49998 5.45455ZM7.49998 1.09091C7.81809 1.09056 8.12915 1.18629 8.39381 1.36598C8.65847 1.54568 8.86483 1.80126 8.9868 2.10039C9.10877 2.39953 9.14086 2.72878 9.07901 3.04648C9.01716 3.36419 8.86414 3.65608 8.63933 3.88523C8.41452 4.11437 8.128 4.27048 7.81603 4.33379C7.50406 4.39711 7.18066 4.36479 6.88674 4.24092C6.59281 4.11705 6.34158 3.90721 6.16481 3.63793C5.98805 3.36865 5.8937 3.05203 5.8937 2.72815C5.89347 2.51322 5.93485 2.30036 6.01548 2.10173C6.0961 1.90311 6.21438 1.7226 6.36356 1.57055C6.51274 1.4185 6.68989 1.29787 6.88489 1.21557C7.07988 1.13327 7.2889 1.09091 7.49998 1.09091ZM11.7857 7.09178C12.1038 7.09213 12.4149 6.9964 12.6795 6.81671C12.9442 6.63701 13.1505 6.38143 13.2725 6.0823C13.3945 5.78316 13.4266 5.45392 13.3647 5.13621C13.3029 4.8185 13.1499 4.52661 12.925 4.29746C12.7002 4.06832 12.4137 3.91221 12.1017 3.8489C11.7898 3.78558 11.4664 3.8179 11.1725 3.94177C10.8785 4.06564 10.6273 4.27549 10.4505 4.54476C10.2738 4.81404 10.1794 5.13066 10.1794 5.45455C10.1792 5.66947 10.2206 5.88233 10.3012 6.08096C10.3818 6.27958 10.5001 6.46009 10.6493 6.61214C10.7985 6.7642 10.9756 6.88482 11.1706 6.96712C11.3656 7.04942 11.5746 7.09178 11.7857 7.09178ZM11.7857 4.90996C11.8915 4.90996 11.9949 4.9419 12.0828 5.00174C12.1708 5.06158 12.2394 5.14663 12.2798 5.24614C12.3203 5.34565 12.3309 5.45515 12.3103 5.56079C12.2896 5.66643 12.2387 5.76346 12.1639 5.83962C12.0891 5.91578 11.9938 5.96765 11.89 5.98866C11.7863 6.00968 11.6787 5.99889 11.581 5.95767C11.4833 5.91646 11.3997 5.84665 11.341 5.7571C11.2822 5.66754 11.2508 5.56225 11.2508 5.45455C11.2513 5.31026 11.3078 5.17201 11.408 5.06998C11.5082 4.96795 11.644 4.91042 11.7857 4.90996ZM3.21427 7.09178C3.53237 7.09213 3.84343 6.9964 4.10809 6.81671C4.37275 6.63701 4.57912 6.38143 4.70109 6.0823C4.82306 5.78316 4.85514 5.45392 4.79329 5.13621C4.73144 4.8185 4.57843 4.52661 4.35362 4.29746C4.1288 4.06832 3.84229 3.91221 3.53032 3.8489C3.21835 3.78558 2.89495 3.8179 2.60102 3.94177C2.3071 4.06564 2.05586 4.27549 1.8791 4.54476C1.70233 4.81404 1.60798 5.13066 1.60798 5.45455C1.60776 5.66947 1.64914 5.88233 1.72976 6.08096C1.81038 6.27958 1.92867 6.46009 2.07785 6.61214C2.22703 6.7642 2.40418 6.88482 2.59917 6.96712C2.79417 7.04942 3.00318 7.09178 3.21427 7.09178ZM3.21427 4.90996C3.32005 4.90996 3.42346 4.9419 3.51142 5.00174C3.59938 5.06158 3.66793 5.14663 3.70841 5.24614C3.74889 5.34565 3.75949 5.45515 3.73885 5.56079C3.71821 5.66643 3.66727 5.76346 3.59247 5.83962C3.51767 5.91578 3.42237 5.96765 3.31861 5.98866C3.21486 6.00968 3.10732 5.99889 3.00959 5.95767C2.91185 5.91646 2.82832 5.84665 2.76955 5.7571C2.71078 5.66754 2.67941 5.56225 2.67941 5.45455C2.67986 5.31026 2.73636 5.17201 2.83657 5.06998C2.93677 4.96795 3.07255 4.91042 3.21427 4.90996Z" fill="#8B97B5"/>
</g>
<defs>
<clipPath id="clip0_7_142">
<rect width="15" height="12" fill="white"/>
</clipPath>
</defs>
</svg>
