<svg width="18" height="10" viewBox="0 0 18 10" fill="none" xmlns="http://www.w3.org/2000/svg">
<path d="M7.69792 1.11111H6.35833C6.22571 1.13175 6.10484 1.19908 6.01754 1.30096C5.93024 1.40283 5.88226 1.53254 5.88226 1.66667C5.88226 1.8008 5.93024 1.93051 6.01754 2.03238C6.10484 2.13426 6.22571 2.20159 6.35833 2.22223H7.69792C7.83054 2.20159 7.9514 2.13426 8.03871 2.03238C8.12601 1.93051 8.17399 1.8008 8.17399 1.66667C8.17399 1.53254 8.12601 1.40283 8.03871 1.30096C7.9514 1.19908 7.83054 1.13175 7.69792 1.11111Z" fill="#8B97B5"/>
<path d="M1.54926 2.22223H2.88884C3.03806 2.22223 3.18116 2.16299 3.28668 2.05755C3.39219 1.9521 3.45147 1.80909 3.45147 1.65998C3.4488 1.52201 3.39546 1.38983 3.30159 1.28862C3.20772 1.18741 3.07989 1.12423 2.94242 1.11111H1.60284C1.47022 1.13175 1.34935 1.19908 1.26205 1.30096C1.17475 1.40283 1.12677 1.53254 1.12677 1.66667C1.12677 1.8008 1.17475 1.93051 1.26205 2.03238C1.34935 2.13426 1.47022 2.20159 1.60284 2.22223H1.54926Z" fill="#8B97B5"/>
<path d="M5.99664 4.44445H3.2237C3.15045 4.44266 3.07759 4.45554 3.0094 4.48232C2.94121 4.5091 2.87907 4.54925 2.82664 4.60039C2.77422 4.65154 2.73256 4.71265 2.70412 4.78013C2.67569 4.84761 2.66105 4.92009 2.66107 4.99331C2.66107 5.14243 2.72035 5.28544 2.82586 5.39088C2.93137 5.49632 3.07448 5.55556 3.2237 5.55556H5.99664C6.14586 5.55556 6.28896 5.49632 6.39447 5.39088C6.49999 5.28544 6.55926 5.14243 6.55926 4.99331C6.55929 4.92009 6.54465 4.84761 6.51621 4.78013C6.48778 4.71265 6.44612 4.65154 6.39369 4.60039C6.34126 4.54925 6.27912 4.5091 6.21093 4.48232C6.14275 4.45554 6.06988 4.44266 5.99664 4.44445Z" fill="#8B97B5"/>
<path d="M4.33557 7.77778H1.54923C1.40356 7.77778 1.26387 7.8356 1.16087 7.93854C1.05787 8.04147 1 8.18107 1 8.32664C0.999958 8.47347 1.05739 8.61449 1.16003 8.71955C1.26266 8.82462 1.40235 8.88539 1.54923 8.88889H4.33557C4.40883 8.88891 4.48136 8.87428 4.54889 8.84587C4.61641 8.81745 4.67756 8.77582 4.72874 8.72343C4.77992 8.67103 4.8201 8.60894 4.8469 8.54079C4.8737 8.47265 4.88658 8.39984 4.8848 8.32664C4.8848 8.25456 4.87059 8.18319 4.84299 8.1166C4.81539 8.05001 4.77493 7.9895 4.72393 7.93854C4.67293 7.88757 4.61238 7.84714 4.54575 7.81956C4.47911 7.79198 4.40769 7.77778 4.33557 7.77778Z" fill="#8B97B5"/>
<path d="M4.61686 2.20884C4.92019 2.20884 5.16609 1.9631 5.16609 1.65998C5.16609 1.35685 4.92019 1.11111 4.61686 1.11111C4.31353 1.11111 4.06763 1.35685 4.06763 1.65998C4.06763 1.9631 4.31353 2.20884 4.61686 2.20884Z" fill="#8B97B5"/>
<path d="M7.67112 5.54217C7.97445 5.54217 8.22035 5.29643 8.22035 4.99331C8.22035 4.69018 7.97445 4.44444 7.67112 4.44444C7.36779 4.44444 7.12189 4.69018 7.12189 4.99331C7.12189 5.29643 7.36779 5.54217 7.67112 5.54217Z" fill="#8B97B5"/>
<path d="M1.54923 5.54217C1.85256 5.54217 2.09846 5.29643 2.09846 4.99331C2.09846 4.69018 1.85256 4.44444 1.54923 4.44444C1.2459 4.44444 1 4.69018 1 4.99331C1 5.29643 1.2459 5.54217 1.54923 5.54217Z" fill="#8B97B5"/>
<path d="M7.67112 8.8755C7.97445 8.8755 8.22035 8.62977 8.22035 8.32664C8.22035 8.02351 7.97445 7.77778 7.67112 7.77778C7.36779 7.77778 7.12189 8.02351 7.12189 8.32664C7.12189 8.62977 7.36779 8.8755 7.67112 8.8755Z" fill="#8B97B5"/>
<path d="M5.99668 8.8755C6.30001 8.8755 6.54591 8.62977 6.54591 8.32664C6.54591 8.02351 6.30001 7.77778 5.99668 7.77778C5.69335 7.77778 5.44745 8.02351 5.44745 8.32664C5.44745 8.62977 5.69335 8.8755 5.99668 8.8755Z" fill="#8B97B5"/>
<path d="M9.6678 2.26232e-08C9.52214 2.26232e-08 9.38244 0.0578264 9.27944 0.160758C9.17644 0.26369 9.11857 0.403295 9.11857 0.548862V9.43775C9.11678 9.51095 9.12967 9.58376 9.15647 9.65191C9.18327 9.72005 9.22344 9.78215 9.27462 9.83454C9.3258 9.88693 9.38696 9.92856 9.45448 9.95698C9.522 9.98539 9.59453 10 9.6678 10C9.81702 10 9.96012 9.94076 10.0656 9.83532C10.1711 9.72988 10.2304 9.58687 10.2304 9.43775V0.548862C10.2269 0.402077 10.1661 0.262482 10.061 0.159918C9.95584 0.0573541 9.81473 -4.16008e-05 9.6678 2.26232e-08Z" fill="#8B97B5"/>
<path d="M17.9598 5.2075C17.9732 5.13673 17.9732 5.06407 17.9598 4.99331C17.9714 4.95397 17.9714 4.91216 17.9598 4.87283V4.7925L16.1782 2.93173C16.0713 2.831 15.9299 2.7749 15.783 2.7749C15.6361 2.7749 15.4947 2.831 15.3878 2.93173C15.3368 2.9827 15.2963 3.04322 15.2687 3.10983C15.2411 3.17644 15.2269 3.24784 15.2269 3.31995C15.2269 3.39205 15.2411 3.46345 15.2687 3.53006C15.2963 3.59667 15.3368 3.6572 15.3878 3.70817L16.1112 4.43106H12.4407V0.548862C12.4407 0.403295 12.3829 0.26369 12.2799 0.160758C12.1769 0.0578264 12.0372 0 11.8915 0C11.7565 0.0161622 11.6319 0.0806658 11.5407 0.181573C11.4496 0.28248 11.3981 0.412959 11.3959 0.548862V9.43775C11.3959 9.58687 11.4552 9.72988 11.5607 9.83532C11.6662 9.94076 11.8093 10 11.9585 10C12.0318 10 12.1043 9.98539 12.1718 9.95698C12.2393 9.92856 12.3005 9.88693 12.3517 9.83454C12.4029 9.78215 12.443 9.72005 12.4698 9.65191C12.4966 9.58376 12.5095 9.51095 12.5077 9.43775V5.55556H16.1782L15.4146 6.26506C15.3107 6.37028 15.2525 6.51215 15.2525 6.65997C15.2525 6.80779 15.3107 6.94967 15.4146 7.05489C15.4659 7.10792 15.5272 7.15011 15.5951 7.17892C15.663 7.20773 15.736 7.22257 15.8098 7.22257C15.8836 7.22257 15.9566 7.20773 16.0245 7.17892C16.0924 7.15011 16.1538 7.10792 16.205 7.05489L17.8393 5.35475C17.8454 5.32382 17.8454 5.29198 17.8393 5.26104L17.9598 5.2075Z" fill="#8B97B5"/>
</svg>
